<svg width="79" height="12" viewBox="0 0 79 12" fill="none" xmlns="http://www.w3.org/2000/svg">
<path d="M4.81592 11H2.75792L0.419922 4H2.47792L3.79392 7.934L5.09592 4H7.13992L8.44192 7.934L9.75792 4H11.8159L9.47792 11H7.41992L6.11792 7.066L4.81592 11Z" fill="#3300FF"/>
<path d="M15.459 11.182C14.815 11.182 14.227 11.0163 13.695 10.685C13.1677 10.3537 12.7453 9.908 12.428 9.348C12.1153 8.788 11.959 8.16967 11.959 7.493C11.959 6.98433 12.05 6.50833 12.232 6.065C12.414 5.617 12.6637 5.225 12.981 4.889C13.303 4.54833 13.6763 4.28233 14.101 4.091C14.5257 3.89967 14.9783 3.804 15.459 3.804C16.019 3.804 16.53 3.92767 16.992 4.175C17.4587 4.41767 17.8507 4.749 18.168 5.169C18.49 5.58433 18.7187 6.05333 18.854 6.576C18.9893 7.09867 19.0033 7.63767 18.896 8.193H14.227C14.2923 8.35633 14.3787 8.50567 14.486 8.641C14.598 8.77167 14.7333 8.87667 14.892 8.956C15.0553 9.03533 15.2443 9.07733 15.459 9.082C15.6643 9.08667 15.8533 9.04233 16.026 8.949C16.2033 8.85567 16.3573 8.72967 16.488 8.571L18.63 9.068C18.3453 9.68867 17.9207 10.1973 17.356 10.594C16.7913 10.986 16.159 11.182 15.459 11.182ZM14.15 6.653H16.775C16.7097 6.45233 16.6117 6.275 16.481 6.121C16.3503 5.967 16.1963 5.84567 16.019 5.757C15.8463 5.66833 15.6597 5.624 15.459 5.624C15.263 5.624 15.0763 5.66833 14.899 5.757C14.7263 5.84567 14.5747 5.967 14.444 6.121C14.318 6.275 14.22 6.45233 14.15 6.653Z" fill="#3300FF"/>
<path d="M24.063 6.1H22.873V11H20.773V6.1H19.863V4H20.773V1.802H22.873V4H24.063V6.1Z" fill="#3300FF"/>
<path d="M25.1895 5.75H29.6695V7.85H25.1895V5.75Z" fill="#3300FF"/>
<path d="M35.2055 6.1H34.0155V11H31.9155V6.1H31.0055V4H31.9155V1.802H34.0155V4H35.2055V6.1Z" fill="#3300FF"/>
<path d="M43.1781 7.472V11H41.0781V7.5C41.0781 7.192 41.0151 6.912 40.8891 6.66C40.7678 6.408 40.6021 6.20733 40.3921 6.058C40.1821 5.90867 39.9488 5.834 39.6921 5.834C39.3841 5.834 39.1391 5.90867 38.9571 6.058C38.7751 6.20733 38.6444 6.408 38.5651 6.66C38.4858 6.912 38.4461 7.192 38.4461 7.5V11H36.3321V0.5H38.4321V4.434C38.5721 4.14467 38.7658 3.96967 39.0131 3.909C39.2651 3.84833 39.5661 3.818 39.9161 3.818C40.5881 3.818 41.1644 3.98367 41.6451 4.315C42.1304 4.64167 42.5038 5.08267 42.7651 5.638C43.0311 6.18867 43.1688 6.8 43.1781 7.472Z" fill="#3300FF"/>
<path d="M47.3828 11.182C46.7388 11.182 46.1508 11.0163 45.6188 10.685C45.0915 10.3537 44.6691 9.908 44.3518 9.348C44.0391 8.788 43.8828 8.16967 43.8828 7.493C43.8828 6.98433 43.9738 6.50833 44.1558 6.065C44.3378 5.617 44.5875 5.225 44.9048 4.889C45.2268 4.54833 45.6001 4.28233 46.0248 4.091C46.4495 3.89967 46.9021 3.804 47.3828 3.804C47.9428 3.804 48.4538 3.92767 48.9158 4.175C49.3825 4.41767 49.7745 4.749 50.0918 5.169C50.4138 5.58433 50.6425 6.05333 50.7778 6.576C50.9131 7.09867 50.9271 7.63767 50.8198 8.193H46.1508C46.2161 8.35633 46.3025 8.50567 46.4098 8.641C46.5218 8.77167 46.6571 8.87667 46.8158 8.956C46.9791 9.03533 47.1681 9.07733 47.3828 9.082C47.5881 9.08667 47.7771 9.04233 47.9498 8.949C48.1271 8.85567 48.2811 8.72967 48.4118 8.571L50.5538 9.068C50.2691 9.68867 49.8445 10.1973 49.2798 10.594C48.7151 10.986 48.0828 11.182 47.3828 11.182ZM46.0738 6.653H48.6988C48.6335 6.45233 48.5355 6.275 48.4048 6.121C48.2741 5.967 48.1201 5.84567 47.9428 5.757C47.7701 5.66833 47.5835 5.624 47.3828 5.624C47.1868 5.624 47.0001 5.66833 46.8228 5.757C46.6501 5.84567 46.4985 5.967 46.3678 6.121C46.2418 6.275 46.1438 6.45233 46.0738 6.653Z" fill="#3300FF"/>
<path d="M56.3697 6.156C56.2437 6.058 56.1014 5.981 55.9427 5.925C55.7841 5.86433 55.6091 5.834 55.4177 5.834C55.1144 5.834 54.8601 5.90867 54.6547 6.058C54.4541 6.20733 54.3024 6.408 54.1997 6.66C54.0971 6.912 54.0457 7.192 54.0457 7.5V11H51.9317V4H54.0317V4.644C54.2511 4.39667 54.5054 4.19833 54.7947 4.049C55.0841 3.895 55.4177 3.818 55.7957 3.818C55.9591 3.818 56.1154 3.82267 56.2647 3.832C56.4187 3.83667 56.5657 3.86 56.7057 3.902L56.3697 6.156Z" fill="#3300FF"/>
<path d="M60.4121 11.182C59.7681 11.182 59.1801 11.0163 58.6481 10.685C58.1208 10.3537 57.6984 9.908 57.3811 9.348C57.0684 8.788 56.9121 8.16967 56.9121 7.493C56.9121 6.98433 57.0031 6.50833 57.1851 6.065C57.3671 5.617 57.6168 5.225 57.9341 4.889C58.2561 4.54833 58.6294 4.28233 59.0541 4.091C59.4788 3.89967 59.9314 3.804 60.4121 3.804C60.9721 3.804 61.4831 3.92767 61.9451 4.175C62.4118 4.41767 62.8038 4.749 63.1211 5.169C63.4431 5.58433 63.6718 6.05333 63.8071 6.576C63.9424 7.09867 63.9564 7.63767 63.8491 8.193H59.1801C59.2454 8.35633 59.3318 8.50567 59.4391 8.641C59.5511 8.77167 59.6864 8.87667 59.8451 8.956C60.0084 9.03533 60.1974 9.07733 60.4121 9.082C60.6174 9.08667 60.8064 9.04233 60.9791 8.949C61.1564 8.85567 61.3104 8.72967 61.4411 8.571L63.5831 9.068C63.2984 9.68867 62.8738 10.1973 62.3091 10.594C61.7444 10.986 61.1121 11.182 60.4121 11.182ZM59.1031 6.653H61.7281C61.6628 6.45233 61.5648 6.275 61.4341 6.121C61.3034 5.967 61.1494 5.84567 60.9721 5.757C60.7994 5.66833 60.6128 5.624 60.4121 5.624C60.2161 5.624 60.0294 5.66833 59.8521 5.757C59.6794 5.84567 59.5278 5.967 59.3971 6.121C59.2711 6.275 59.1731 6.45233 59.1031 6.653Z" fill="#3300FF"/>
<path d="M65.7994 11.182C65.5054 11.182 65.2557 11.0817 65.0504 10.881C64.8497 10.6757 64.7494 10.426 64.7494 10.132C64.7494 9.84267 64.8497 9.59533 65.0504 9.39C65.2557 9.18467 65.5054 9.082 65.7994 9.082C66.0887 9.082 66.336 9.18467 66.5414 9.39C66.7467 9.59533 66.8494 9.84267 66.8494 10.132C66.8494 10.426 66.7467 10.6757 66.5414 10.881C66.336 11.0817 66.0887 11.182 65.7994 11.182Z" fill="#3300FF"/>
<path d="M68.5294 4H70.6294V11H68.5294V4ZM69.5864 3.132C69.2877 3.132 69.0357 3.03167 68.8304 2.831C68.625 2.63033 68.5224 2.38067 68.5224 2.082C68.5224 1.788 68.625 1.54067 68.8304 1.34C69.0357 1.13467 69.2877 1.032 69.5864 1.032C69.8804 1.032 70.1277 1.13467 70.3284 1.34C70.5337 1.54067 70.6364 1.788 70.6364 2.082C70.6364 2.38067 70.5337 2.63033 70.3284 2.831C70.1277 3.03167 69.8804 3.132 69.5864 3.132Z" fill="#3300FF"/>
<path d="M75.2441 11.1822C74.6001 11.1822 74.0121 11.0165 73.4801 10.6852C72.9528 10.3539 72.5305 9.91053 72.2131 9.3552C71.9005 8.7952 71.7441 8.17687 71.7441 7.5002C71.7441 6.98687 71.8351 6.50853 72.0171 6.0652C72.1991 5.6172 72.4488 5.2252 72.7661 4.8892C73.0881 4.54853 73.4615 4.28253 73.8861 4.0912C74.3108 3.89987 74.7635 3.8042 75.2441 3.8042C75.8881 3.8042 76.4738 3.96987 77.0011 4.3012C77.5331 4.63253 77.9555 5.0782 78.2681 5.6382C78.5855 6.1982 78.7441 6.81887 78.7441 7.5002C78.7441 8.00887 78.6531 8.48487 78.4711 8.9282C78.2891 9.37153 78.0371 9.76353 77.7151 10.1042C77.3978 10.4402 77.0268 10.7039 76.6021 10.8952C76.1821 11.0865 75.7295 11.1822 75.2441 11.1822ZM75.2441 9.0822C75.5101 9.0822 75.7481 9.00987 75.9581 8.8652C76.1728 8.72053 76.3408 8.5292 76.4621 8.2912C76.5835 8.04853 76.6441 7.78487 76.6441 7.5002C76.6441 7.2062 76.5788 6.93787 76.4481 6.6952C76.3221 6.45253 76.1518 6.2612 75.9371 6.1212C75.7271 5.97653 75.4961 5.9042 75.2441 5.9042C74.9828 5.9042 74.7448 5.97887 74.5301 6.1282C74.3201 6.27287 74.1521 6.46653 74.0261 6.7092C73.9048 6.95187 73.8441 7.21553 73.8441 7.5002C73.8441 7.79887 73.9071 8.0672 74.0331 8.3052C74.1638 8.5432 74.3341 8.7322 74.5441 8.8722C74.7588 9.0122 74.9921 9.0822 75.2441 9.0822Z" fill="#3300FF"/>
</svg>
